<svg width="844" height="108" viewBox="0 0 844 108" class="react-activity-calendar__calendar styles_calendar__kghkr"><g transform="translate(0, 0)"><rect x="0" y="0" width="12" height="12" fill="#161B22" rx="2" ry="2" class="styles_block__zu71P" data-date="2024-01-07"></rect><rect x="0" y="16" width="12" height="12" fill="#161B22" rx="2" ry="2" class="styles_block__zu71P" data-date="2024-01-08"></rect><rect x="0" y="32" width="12" height="12" fill="#161B22" rx="2" ry="2" class="styles_block__zu71P" data-date="2024-01-09"></rect><rect x="0" y="48" width="12" height="12" fill="#161B22" rx="2" ry="2" class="styles_block__zu71P" data-date="2024-01-10"></rect><rect x="0" y="64" width="12" height="12" fill="#161B22" rx="2" ry="2" class="styles_block__zu71P" data-date="2024-01-11"></rect><rect x="0" y="80" width="12" height="12" fill="#161B22" rx="2" ry="2" class="styles_block__zu71P" data-date="2024-01-12"></rect><rect x="0" y="96" width="12" height="12" fill="#161B22" rx="2" ry="2" class="styles_block__zu71P" data-date="2024-01-13"></rect></g><g transform="translate(16, 0)"><rect x="0" y="0" width="12" height="12" fill="#161B22" rx="2" ry="2" class="styles_block__zu71P" data-date="2024-01-14"></rect><rect x="0" y="16" width="12" height="12" fill="#161B22" rx="2" ry="2" class="styles_block__zu71P" data-date="2024-01-15"></rect><rect x="0" y="32" width="12" height="12" fill="#161B22" rx="2" ry="2" class="styles_block__zu71P" data-date="2024-01-16"></rect><rect x="0" y="48" width="12" height="12" fill="#161B22" rx="2" ry="2" class="styles_block__zu71P" data-date="2024-01-17"></rect><rect x="0" y="64" width="12" height="12" fill="#161B22" rx="2" ry="2" class="styles_block__zu71P" data-date="2024-01-18"></rect><rect x="0" y="80" width="12" height="12" fill="#161B22" rx="2" ry="2" class="styles_block__zu71P" data-date="2024-01-19"></rect><rect x="0" y="96" width="12" height="12" fill="#161B22" rx="2" ry="2" class="styles_block__zu71P" data-date="2024-01-20"></rect></g><g transform="translate(32, 0)"><rect x="0" y="0" width="12" height="12" fill="#39d353" rx="2" ry="2" class="styles_block__zu71P" data-date="2024-01-21"></rect><rect x="0" y="16" width="12" height="12" fill="#161B22" rx="2" ry="2" class="styles_block__zu71P" data-date="2024-01-22"></rect><rect x="0" y="32" width="12" height="12" fill="#161B22" rx="2" ry="2" class="styles_block__zu71P" data-date="2024-01-23"></rect><rect x="0" y="48" width="12" height="12" fill="#161B22" rx="2" ry="2" class="styles_block__zu71P" data-date="2024-01-24"></rect><rect x="0" y="64" width="12" height="12" fill="#161B22" rx="2" ry="2" class="styles_block__zu71P" data-date="2024-01-25"></rect><rect x="0" y="80" width="12" height="12" fill="#161B22" rx="2" ry="2" class="styles_block__zu71P" data-date="2024-01-26"></rect><rect x="0" y="96" width="12" height="12" fill="#161B22" rx="2" ry="2" class="styles_block__zu71P" data-date="2024-01-27"></rect></g><g transform="translate(48, 0)"><rect x="0" y="0" width="12" height="12" fill="#161B22" rx="2" ry="2" class="styles_block__zu71P" data-date="2024-01-28"></rect><rect x="0" y="16" width="12" height="12" fill="#161B22" rx="2" ry="2" class="styles_block__zu71P" data-date="2024-01-29"></rect><rect x="0" y="32" width="12" height="12" fill="#161B22" rx="2" ry="2" class="styles_block__zu71P" data-date="2024-01-30"></rect><rect x="0" y="48" width="12" height="12" fill="#161B22" rx="2" ry="2" class="styles_block__zu71P" data-date="2024-01-31"></rect><rect x="0" y="64" width="12" height="12" fill="#161B22" rx="2" ry="2" class="styles_block__zu71P" data-date="2024-02-01"></rect><rect x="0" y="80" width="12" height="12" fill="#161B22" rx="2" ry="2" class="styles_block__zu71P" data-date="2024-02-02"></rect><rect x="0" y="96" width="12" height="12" fill="#161B22" rx="2" ry="2" class="styles_block__zu71P" data-date="2024-02-03"></rect></g><g transform="translate(64, 0)"><rect x="0" y="0" width="12" height="12" fill="#161B22" rx="2" ry="2" class="styles_block__zu71P" data-date="2024-02-04"></rect><rect x="0" y="16" width="12" height="12" fill="#161B22" rx="2" ry="2" class="styles_block__zu71P" data-date="2024-02-05"></rect><rect x="0" y="32" width="12" height="12" fill="#161B22" rx="2" ry="2" class="styles_block__zu71P" data-date="2024-02-06"></rect><rect x="0" y="48" width="12" height="12" fill="#161B22" rx="2" ry="2" class="styles_block__zu71P" data-date="2024-02-07"></rect><rect x="0" y="64" width="12" height="12" fill="#161B22" rx="2" ry="2" class="styles_block__zu71P" data-date="2024-02-08"></rect><rect x="0" y="80" width="12" height="12" fill="#161B22" rx="2" ry="2" class="styles_block__zu71P" data-date="2024-02-09"></rect><rect x="0" y="96" width="12" height="12" fill="#161B22" rx="2" ry="2" class="styles_block__zu71P" data-date="2024-02-10"></rect></g><g transform="translate(80, 0)"><rect x="0" y="0" width="12" height="12" fill="#161B22" rx="2" ry="2" class="styles_block__zu71P" data-date="2024-02-11"></rect><rect x="0" y="16" width="12" height="12" fill="#161B22" rx="2" ry="2" class="styles_block__zu71P" data-date="2024-02-12"></rect><rect x="0" y="32" width="12" height="12" fill="#161B22" rx="2" ry="2" class="styles_block__zu71P" data-date="2024-02-13"></rect><rect x="0" y="48" width="12" height="12" fill="#161B22" rx="2" ry="2" class="styles_block__zu71P" data-date="2024-02-14"></rect><rect x="0" y="64" width="12" height="12" fill="#161B22" rx="2" ry="2" class="styles_block__zu71P" data-date="2024-02-15"></rect><rect x="0" y="80" width="12" height="12" fill="#161B22" rx="2" ry="2" class="styles_block__zu71P" data-date="2024-02-16"></rect><rect x="0" y="96" width="12" height="12" fill="#161B22" rx="2" ry="2" class="styles_block__zu71P" data-date="2024-02-17"></rect></g><g transform="translate(96, 0)"><rect x="0" y="0" width="12" height="12" fill="#161B22" rx="2" ry="2" class="styles_block__zu71P" data-date="2024-02-18"></rect><rect x="0" y="16" width="12" height="12" fill="#161B22" rx="2" ry="2" class="styles_block__zu71P" data-date="2024-02-19"></rect><rect x="0" y="32" width="12" height="12" fill="#161B22" rx="2" ry="2" class="styles_block__zu71P" data-date="2024-02-20"></rect><rect x="0" y="48" width="12" height="12" fill="#161B22" rx="2" ry="2" class="styles_block__zu71P" data-date="2024-02-21"></rect><rect x="0" y="64" width="12" height="12" fill="#161B22" rx="2" ry="2" class="styles_block__zu71P" data-date="2024-02-22"></rect><rect x="0" y="80" width="12" height="12" fill="#161B22" rx="2" ry="2" class="styles_block__zu71P" data-date="2024-02-23"></rect><rect x="0" y="96" width="12" height="12" fill="#161B22" rx="2" ry="2" class="styles_block__zu71P" data-date="2024-02-24"></rect></g><g transform="translate(112, 0)"><rect x="0" y="0" width="12" height="12" fill="#161B22" rx="2" ry="2" class="styles_block__zu71P" data-date="2024-02-25"></rect><rect x="0" y="16" width="12" height="12" fill="#161B22" rx="2" ry="2" class="styles_block__zu71P" data-date="2024-02-26"></rect><rect x="0" y="32" width="12" height="12" fill="#161B22" rx="2" ry="2" class="styles_block__zu71P" data-date="2024-02-27"></rect><rect x="0" y="48" width="12" height="12" fill="#161B22" rx="2" ry="2" class="styles_block__zu71P" data-date="2024-02-28"></rect><rect x="0" y="64" width="12" height="12" fill="#161B22" rx="2" ry="2" class="styles_block__zu71P" data-date="2024-02-29"></rect><rect x="0" y="80" width="12" height="12" fill="#161B22" rx="2" ry="2" class="styles_block__zu71P" data-date="2024-03-01"></rect><rect x="0" y="96" width="12" height="12" fill="#161B22" rx="2" ry="2" class="styles_block__zu71P" data-date="2024-03-02"></rect></g><g transform="translate(128, 0)"><rect x="0" y="0" width="12" height="12" fill="#161B22" rx="2" ry="2" class="styles_block__zu71P" data-date="2024-03-03"></rect><rect x="0" y="16" width="12" height="12" fill="#161B22" rx="2" ry="2" class="styles_block__zu71P" data-date="2024-03-04"></rect><rect x="0" y="32" width="12" height="12" fill="#161B22" rx="2" ry="2" class="styles_block__zu71P" data-date="2024-03-05"></rect><rect x="0" y="48" width="12" height="12" fill="#161B22" rx="2" ry="2" class="styles_block__zu71P" data-date="2024-03-06"></rect><rect x="0" y="64" width="12" height="12" fill="#161B22" rx="2" ry="2" class="styles_block__zu71P" data-date="2024-03-07"></rect><rect x="0" y="80" width="12" height="12" fill="#161B22" rx="2" ry="2" class="styles_block__zu71P" data-date="2024-03-08"></rect><rect x="0" y="96" width="12" height="12" fill="#161B22" rx="2" ry="2" class="styles_block__zu71P" data-date="2024-03-09"></rect></g><g transform="translate(144, 0)"><rect x="0" y="0" width="12" height="12" fill="#161B22" rx="2" ry="2" class="styles_block__zu71P" data-date="2024-03-10"></rect><rect x="0" y="16" width="12" height="12" fill="#006d32" rx="2" ry="2" class="styles_block__zu71P" data-date="2024-03-11"></rect><rect x="0" y="32" width="12" height="12" fill="#161B22" rx="2" ry="2" class="styles_block__zu71P" data-date="2024-03-12"></rect><rect x="0" y="48" width="12" height="12" fill="#161B22" rx="2" ry="2" class="styles_block__zu71P" data-date="2024-03-13"></rect><rect x="0" y="64" width="12" height="12" fill="#161B22" rx="2" ry="2" class="styles_block__zu71P" data-date="2024-03-14"></rect><rect x="0" y="80" width="12" height="12" fill="#161B22" rx="2" ry="2" class="styles_block__zu71P" data-date="2024-03-15"></rect><rect x="0" y="96" width="12" height="12" fill="#161B22" rx="2" ry="2" class="styles_block__zu71P" data-date="2024-03-16"></rect></g><g transform="translate(160, 0)"><rect x="0" y="0" width="12" height="12" fill="#161B22" rx="2" ry="2" class="styles_block__zu71P" data-date="2024-03-17"></rect><rect x="0" y="16" width="12" height="12" fill="#161B22" rx="2" ry="2" class="styles_block__zu71P" data-date="2024-03-18"></rect><rect x="0" y="32" width="12" height="12" fill="#161B22" rx="2" ry="2" class="styles_block__zu71P" data-date="2024-03-19"></rect><rect x="0" y="48" width="12" height="12" fill="#161B22" rx="2" ry="2" class="styles_block__zu71P" data-date="2024-03-20"></rect><rect x="0" y="64" width="12" height="12" fill="#161B22" rx="2" ry="2" class="styles_block__zu71P" data-date="2024-03-21"></rect><rect x="0" y="80" width="12" height="12" fill="#161B22" rx="2" ry="2" class="styles_block__zu71P" data-date="2024-03-22"></rect><rect x="0" y="96" width="12" height="12" fill="#161B22" rx="2" ry="2" class="styles_block__zu71P" data-date="2024-03-23"></rect></g><g transform="translate(176, 0)"><rect x="0" y="0" width="12" height="12" fill="#161B22" rx="2" ry="2" class="styles_block__zu71P" data-date="2024-03-24"></rect><rect x="0" y="16" width="12" height="12" fill="#161B22" rx="2" ry="2" class="styles_block__zu71P" data-date="2024-03-25"></rect><rect x="0" y="32" width="12" height="12" fill="#161B22" rx="2" ry="2" class="styles_block__zu71P" data-date="2024-03-26"></rect><rect x="0" y="48" width="12" height="12" fill="#161B22" rx="2" ry="2" class="styles_block__zu71P" data-date="2024-03-27"></rect><rect x="0" y="64" width="12" height="12" fill="#161B22" rx="2" ry="2" class="styles_block__zu71P" data-date="2024-03-28"></rect><rect x="0" y="80" width="12" height="12" fill="#161B22" rx="2" ry="2" class="styles_block__zu71P" data-date="2024-03-29"></rect><rect x="0" y="96" width="12" height="12" fill="#161B22" rx="2" ry="2" class="styles_block__zu71P" data-date="2024-03-30"></rect></g><g transform="translate(192, 0)"><rect x="0" y="0" width="12" height="12" fill="#161B22" rx="2" ry="2" class="styles_block__zu71P" data-date="2024-03-31"></rect><rect x="0" y="16" width="12" height="12" fill="#161B22" rx="2" ry="2" class="styles_block__zu71P" data-date="2024-04-01"></rect><rect x="0" y="32" width="12" height="12" fill="#161B22" rx="2" ry="2" class="styles_block__zu71P" data-date="2024-04-02"></rect><rect x="0" y="48" width="12" height="12" fill="#161B22" rx="2" ry="2" class="styles_block__zu71P" data-date="2024-04-03"></rect><rect x="0" y="64" width="12" height="12" fill="#161B22" rx="2" ry="2" class="styles_block__zu71P" data-date="2024-04-04"></rect><rect x="0" y="80" width="12" height="12" fill="#161B22" rx="2" ry="2" class="styles_block__zu71P" data-date="2024-04-05"></rect><rect x="0" y="96" width="12" height="12" fill="#161B22" rx="2" ry="2" class="styles_block__zu71P" data-date="2024-04-06"></rect></g><g transform="translate(208, 0)"><rect x="0" y="0" width="12" height="12" fill="#161B22" rx="2" ry="2" class="styles_block__zu71P" data-date="2024-04-07"></rect><rect x="0" y="16" width="12" height="12" fill="#161B22" rx="2" ry="2" class="styles_block__zu71P" data-date="2024-04-08"></rect><rect x="0" y="32" width="12" height="12" fill="#161B22" rx="2" ry="2" class="styles_block__zu71P" data-date="2024-04-09"></rect><rect x="0" y="48" width="12" height="12" fill="#161B22" rx="2" ry="2" class="styles_block__zu71P" data-date="2024-04-10"></rect><rect x="0" y="64" width="12" height="12" fill="#161B22" rx="2" ry="2" class="styles_block__zu71P" data-date="2024-04-11"></rect><rect x="0" y="80" width="12" height="12" fill="#161B22" rx="2" ry="2" class="styles_block__zu71P" data-date="2024-04-12"></rect><rect x="0" y="96" width="12" height="12" fill="#161B22" rx="2" ry="2" class="styles_block__zu71P" data-date="2024-04-13"></rect></g><g transform="translate(224, 0)"><rect x="0" y="0" width="12" height="12" fill="#161B22" rx="2" ry="2" class="styles_block__zu71P" data-date="2024-04-14"></rect><rect x="0" y="16" width="12" height="12" fill="#161B22" rx="2" ry="2" class="styles_block__zu71P" data-date="2024-04-15"></rect><rect x="0" y="32" width="12" height="12" fill="#161B22" rx="2" ry="2" class="styles_block__zu71P" data-date="2024-04-16"></rect><rect x="0" y="48" width="12" height="12" fill="#161B22" rx="2" ry="2" class="styles_block__zu71P" data-date="2024-04-17"></rect><rect x="0" y="64" width="12" height="12" fill="#161B22" rx="2" ry="2" class="styles_block__zu71P" data-date="2024-04-18"></rect><rect x="0" y="80" width="12" height="12" fill="#161B22" rx="2" ry="2" class="styles_block__zu71P" data-date="2024-04-19"></rect><rect x="0" y="96" width="12" height="12" fill="#161B22" rx="2" ry="2" class="styles_block__zu71P" data-date="2024-04-20"></rect></g><g transform="translate(240, 0)"><rect x="0" y="0" width="12" height="12" fill="#161B22" rx="2" ry="2" class="styles_block__zu71P" data-date="2024-04-21"></rect><rect x="0" y="16" width="12" height="12" fill="#161B22" rx="2" ry="2" class="styles_block__zu71P" data-date="2024-04-22"></rect><rect x="0" y="32" width="12" height="12" fill="#161B22" rx="2" ry="2" class="styles_block__zu71P" data-date="2024-04-23"></rect><rect x="0" y="48" width="12" height="12" fill="#161B22" rx="2" ry="2" class="styles_block__zu71P" data-date="2024-04-24"></rect><rect x="0" y="64" width="12" height="12" fill="#161B22" rx="2" ry="2" class="styles_block__zu71P" data-date="2024-04-25"></rect><rect x="0" y="80" width="12" height="12" fill="#161B22" rx="2" ry="2" class="styles_block__zu71P" data-date="2024-04-26"></rect><rect x="0" y="96" width="12" height="12" fill="#161B22" rx="2" ry="2" class="styles_block__zu71P" data-date="2024-04-27"></rect></g><g transform="translate(256, 0)"><rect x="0" y="0" width="12" height="12" fill="#161B22" rx="2" ry="2" class="styles_block__zu71P" data-date="2024-04-28"></rect><rect x="0" y="16" width="12" height="12" fill="#161B22" rx="2" ry="2" class="styles_block__zu71P" data-date="2024-04-29"></rect><rect x="0" y="32" width="12" height="12" fill="#161B22" rx="2" ry="2" class="styles_block__zu71P" data-date="2024-04-30"></rect><rect x="0" y="48" width="12" height="12" fill="#161B22" rx="2" ry="2" class="styles_block__zu71P" data-date="2024-05-01"></rect><rect x="0" y="64" width="12" height="12" fill="#161B22" rx="2" ry="2" class="styles_block__zu71P" data-date="2024-05-02"></rect><rect x="0" y="80" width="12" height="12" fill="#161B22" rx="2" ry="2" class="styles_block__zu71P" data-date="2024-05-03"></rect><rect x="0" y="96" width="12" height="12" fill="#161B22" rx="2" ry="2" class="styles_block__zu71P" data-date="2024-05-04"></rect></g><g transform="translate(272, 0)"><rect x="0" y="0" width="12" height="12" fill="#161B22" rx="2" ry="2" class="styles_block__zu71P" data-date="2024-05-05"></rect><rect x="0" y="16" width="12" height="12" fill="#161B22" rx="2" ry="2" class="styles_block__zu71P" data-date="2024-05-06"></rect><rect x="0" y="32" width="12" height="12" fill="#161B22" rx="2" ry="2" class="styles_block__zu71P" data-date="2024-05-07"></rect><rect x="0" y="48" width="12" height="12" fill="#161B22" rx="2" ry="2" class="styles_block__zu71P" data-date="2024-05-08"></rect><rect x="0" y="64" width="12" height="12" fill="#006d32" rx="2" ry="2" class="styles_block__zu71P" data-date="2024-05-09"></rect><rect x="0" y="80" width="12" height="12" fill="#26a641" rx="2" ry="2" class="styles_block__zu71P" data-date="2024-05-10"></rect><rect x="0" y="96" width="12" height="12" fill="#161B22" rx="2" ry="2" class="styles_block__zu71P" data-date="2024-05-11"></rect></g><g transform="translate(288, 0)"><rect x="0" y="0" width="12" height="12" fill="#161B22" rx="2" ry="2" class="styles_block__zu71P" data-date="2024-05-12"></rect><rect x="0" y="16" width="12" height="12" fill="#161B22" rx="2" ry="2" class="styles_block__zu71P" data-date="2024-05-13"></rect><rect x="0" y="32" width="12" height="12" fill="#161B22" rx="2" ry="2" class="styles_block__zu71P" data-date="2024-05-14"></rect><rect x="0" y="48" width="12" height="12" fill="#161B22" rx="2" ry="2" class="styles_block__zu71P" data-date="2024-05-15"></rect><rect x="0" y="64" width="12" height="12" fill="#161B22" rx="2" ry="2" class="styles_block__zu71P" data-date="2024-05-16"></rect><rect x="0" y="80" width="12" height="12" fill="#161B22" rx="2" ry="2" class="styles_block__zu71P" data-date="2024-05-17"></rect><rect x="0" y="96" width="12" height="12" fill="#161B22" rx="2" ry="2" class="styles_block__zu71P" data-date="2024-05-18"></rect></g><g transform="translate(304, 0)"><rect x="0" y="0" width="12" height="12" fill="#161B22" rx="2" ry="2" class="styles_block__zu71P" data-date="2024-05-19"></rect><rect x="0" y="16" width="12" height="12" fill="#161B22" rx="2" ry="2" class="styles_block__zu71P" data-date="2024-05-20"></rect><rect x="0" y="32" width="12" height="12" fill="#161B22" rx="2" ry="2" class="styles_block__zu71P" data-date="2024-05-21"></rect><rect x="0" y="48" width="12" height="12" fill="#39d353" rx="2" ry="2" class="styles_block__zu71P" data-date="2024-05-22"></rect><rect x="0" y="64" width="12" height="12" fill="#161B22" rx="2" ry="2" class="styles_block__zu71P" data-date="2024-05-23"></rect><rect x="0" y="80" width="12" height="12" fill="#161B22" rx="2" ry="2" class="styles_block__zu71P" data-date="2024-05-24"></rect><rect x="0" y="96" width="12" height="12" fill="#161B22" rx="2" ry="2" class="styles_block__zu71P" data-date="2024-05-25"></rect></g><g transform="translate(320, 0)"><rect x="0" y="0" width="12" height="12" fill="#161B22" rx="2" ry="2" class="styles_block__zu71P" data-date="2024-05-26"></rect><rect x="0" y="16" width="12" height="12" fill="#161B22" rx="2" ry="2" class="styles_block__zu71P" data-date="2024-05-27"></rect><rect x="0" y="32" width="12" height="12" fill="#161B22" rx="2" ry="2" class="styles_block__zu71P" data-date="2024-05-28"></rect><rect x="0" y="48" width="12" height="12" fill="#161B22" rx="2" ry="2" class="styles_block__zu71P" data-date="2024-05-29"></rect><rect x="0" y="64" width="12" height="12" fill="#161B22" rx="2" ry="2" class="styles_block__zu71P" data-date="2024-05-30"></rect><rect x="0" y="80" width="12" height="12" fill="#161B22" rx="2" ry="2" class="styles_block__zu71P" data-date="2024-05-31"></rect><rect x="0" y="96" width="12" height="12" fill="#161B22" rx="2" ry="2" class="styles_block__zu71P" data-date="2024-06-01"></rect></g><g transform="translate(336, 0)"><rect x="0" y="0" width="12" height="12" fill="#161B22" rx="2" ry="2" class="styles_block__zu71P" data-date="2024-06-02"></rect><rect x="0" y="16" width="12" height="12" fill="#161B22" rx="2" ry="2" class="styles_block__zu71P" data-date="2024-06-03"></rect><rect x="0" y="32" width="12" height="12" fill="#161B22" rx="2" ry="2" class="styles_block__zu71P" data-date="2024-06-04"></rect><rect x="0" y="48" width="12" height="12" fill="#161B22" rx="2" ry="2" class="styles_block__zu71P" data-date="2024-06-05"></rect><rect x="0" y="64" width="12" height="12" fill="#161B22" rx="2" ry="2" class="styles_block__zu71P" data-date="2024-06-06"></rect><rect x="0" y="80" width="12" height="12" fill="#161B22" rx="2" ry="2" class="styles_block__zu71P" data-date="2024-06-07"></rect><rect x="0" y="96" width="12" height="12" fill="#161B22" rx="2" ry="2" class="styles_block__zu71P" data-date="2024-06-08"></rect></g><g transform="translate(352, 0)"><rect x="0" y="0" width="12" height="12" fill="#161B22" rx="2" ry="2" class="styles_block__zu71P" data-date="2024-06-09"></rect><rect x="0" y="16" width="12" height="12" fill="#161B22" rx="2" ry="2" class="styles_block__zu71P" data-date="2024-06-10"></rect><rect x="0" y="32" width="12" height="12" fill="#161B22" rx="2" ry="2" class="styles_block__zu71P" data-date="2024-06-11"></rect><rect x="0" y="48" width="12" height="12" fill="#161B22" rx="2" ry="2" class="styles_block__zu71P" data-date="2024-06-12"></rect><rect x="0" y="64" width="12" height="12" fill="#006d32" rx="2" ry="2" class="styles_block__zu71P" data-date="2024-06-13"></rect><rect x="0" y="80" width="12" height="12" fill="#161B22" rx="2" ry="2" class="styles_block__zu71P" data-date="2024-06-14"></rect><rect x="0" y="96" width="12" height="12" fill="#161B22" rx="2" ry="2" class="styles_block__zu71P" data-date="2024-06-15"></rect></g><g transform="translate(368, 0)"><rect x="0" y="0" width="12" height="12" fill="#161B22" rx="2" ry="2" class="styles_block__zu71P" data-date="2024-06-16"></rect><rect x="0" y="16" width="12" height="12" fill="#161B22" rx="2" ry="2" class="styles_block__zu71P" data-date="2024-06-17"></rect><rect x="0" y="32" width="12" height="12" fill="#161B22" rx="2" ry="2" class="styles_block__zu71P" data-date="2024-06-18"></rect><rect x="0" y="48" width="12" height="12" fill="#161B22" rx="2" ry="2" class="styles_block__zu71P" data-date="2024-06-19"></rect><rect x="0" y="64" width="12" height="12" fill="#161B22" rx="2" ry="2" class="styles_block__zu71P" data-date="2024-06-20"></rect><rect x="0" y="80" width="12" height="12" fill="#161B22" rx="2" ry="2" class="styles_block__zu71P" data-date="2024-06-21"></rect><rect x="0" y="96" width="12" height="12" fill="#39d353" rx="2" ry="2" class="styles_block__zu71P" data-date="2024-06-22"></rect></g><g transform="translate(384, 0)"><rect x="0" y="0" width="12" height="12" fill="#161B22" rx="2" ry="2" class="styles_block__zu71P" data-date="2024-06-23"></rect><rect x="0" y="16" width="12" height="12" fill="#161B22" rx="2" ry="2" class="styles_block__zu71P" data-date="2024-06-24"></rect><rect x="0" y="32" width="12" height="12" fill="#161B22" rx="2" ry="2" class="styles_block__zu71P" data-date="2024-06-25"></rect><rect x="0" y="48" width="12" height="12" fill="#161B22" rx="2" ry="2" class="styles_block__zu71P" data-date="2024-06-26"></rect><rect x="0" y="64" width="12" height="12" fill="#161B22" rx="2" ry="2" class="styles_block__zu71P" data-date="2024-06-27"></rect><rect x="0" y="80" width="12" height="12" fill="#161B22" rx="2" ry="2" class="styles_block__zu71P" data-date="2024-06-28"></rect><rect x="0" y="96" width="12" height="12" fill="#161B22" rx="2" ry="2" class="styles_block__zu71P" data-date="2024-06-29"></rect></g><g transform="translate(400, 0)"><rect x="0" y="0" width="12" height="12" fill="#161B22" rx="2" ry="2" class="styles_block__zu71P" data-date="2024-06-30"></rect><rect x="0" y="16" width="12" height="12" fill="#161B22" rx="2" ry="2" class="styles_block__zu71P" data-date="2024-07-01"></rect><rect x="0" y="32" width="12" height="12" fill="#161B22" rx="2" ry="2" class="styles_block__zu71P" data-date="2024-07-02"></rect><rect x="0" y="48" width="12" height="12" fill="#161B22" rx="2" ry="2" class="styles_block__zu71P" data-date="2024-07-03"></rect><rect x="0" y="64" width="12" height="12" fill="#161B22" rx="2" ry="2" class="styles_block__zu71P" data-date="2024-07-04"></rect><rect x="0" y="80" width="12" height="12" fill="#161B22" rx="2" ry="2" class="styles_block__zu71P" data-date="2024-07-05"></rect><rect x="0" y="96" width="12" height="12" fill="#161B22" rx="2" ry="2" class="styles_block__zu71P" data-date="2024-07-06"></rect></g><g transform="translate(416, 0)"><rect x="0" y="0" width="12" height="12" fill="#161B22" rx="2" ry="2" class="styles_block__zu71P" data-date="2024-07-07"></rect><rect x="0" y="16" width="12" height="12" fill="#161B22" rx="2" ry="2" class="styles_block__zu71P" data-date="2024-07-08"></rect><rect x="0" y="32" width="12" height="12" fill="#161B22" rx="2" ry="2" class="styles_block__zu71P" data-date="2024-07-09"></rect><rect x="0" y="48" width="12" height="12" fill="#161B22" rx="2" ry="2" class="styles_block__zu71P" data-date="2024-07-10"></rect><rect x="0" y="64" width="12" height="12" fill="#161B22" rx="2" ry="2" class="styles_block__zu71P" data-date="2024-07-11"></rect><rect x="0" y="80" width="12" height="12" fill="#161B22" rx="2" ry="2" class="styles_block__zu71P" data-date="2024-07-12"></rect><rect x="0" y="96" width="12" height="12" fill="#161B22" rx="2" ry="2" class="styles_block__zu71P" data-date="2024-07-13"></rect></g><g transform="translate(432, 0)"><rect x="0" y="0" width="12" height="12" fill="#161B22" rx="2" ry="2" class="styles_block__zu71P" data-date="2024-07-14"></rect><rect x="0" y="16" width="12" height="12" fill="#161B22" rx="2" ry="2" class="styles_block__zu71P" data-date="2024-07-15"></rect><rect x="0" y="32" width="12" height="12" fill="#161B22" rx="2" ry="2" class="styles_block__zu71P" data-date="2024-07-16"></rect><rect x="0" y="48" width="12" height="12" fill="#161B22" rx="2" ry="2" class="styles_block__zu71P" data-date="2024-07-17"></rect><rect x="0" y="64" width="12" height="12" fill="#161B22" rx="2" ry="2" class="styles_block__zu71P" data-date="2024-07-18"></rect><rect x="0" y="80" width="12" height="12" fill="#161B22" rx="2" ry="2" class="styles_block__zu71P" data-date="2024-07-19"></rect><rect x="0" y="96" width="12" height="12" fill="#161B22" rx="2" ry="2" class="styles_block__zu71P" data-date="2024-07-20"></rect></g><g transform="translate(448, 0)"><rect x="0" y="0" width="12" height="12" fill="#161B22" rx="2" ry="2" class="styles_block__zu71P" data-date="2024-07-21"></rect><rect x="0" y="16" width="12" height="12" fill="#161B22" rx="2" ry="2" class="styles_block__zu71P" data-date="2024-07-22"></rect><rect x="0" y="32" width="12" height="12" fill="#161B22" rx="2" ry="2" class="styles_block__zu71P" data-date="2024-07-23"></rect><rect x="0" y="48" width="12" height="12" fill="#161B22" rx="2" ry="2" class="styles_block__zu71P" data-date="2024-07-24"></rect><rect x="0" y="64" width="12" height="12" fill="#161B22" rx="2" ry="2" class="styles_block__zu71P" data-date="2024-07-25"></rect><rect x="0" y="80" width="12" height="12" fill="#161B22" rx="2" ry="2" class="styles_block__zu71P" data-date="2024-07-26"></rect><rect x="0" y="96" width="12" height="12" fill="#161B22" rx="2" ry="2" class="styles_block__zu71P" data-date="2024-07-27"></rect></g><g transform="translate(464, 0)"><rect x="0" y="0" width="12" height="12" fill="#161B22" rx="2" ry="2" class="styles_block__zu71P" data-date="2024-07-28"></rect><rect x="0" y="16" width="12" height="12" fill="#161B22" rx="2" ry="2" class="styles_block__zu71P" data-date="2024-07-29"></rect><rect x="0" y="32" width="12" height="12" fill="#161B22" rx="2" ry="2" class="styles_block__zu71P" data-date="2024-07-30"></rect><rect x="0" y="48" width="12" height="12" fill="#161B22" rx="2" ry="2" class="styles_block__zu71P" data-date="2024-07-31"></rect><rect x="0" y="64" width="12" height="12" fill="#161B22" rx="2" ry="2" class="styles_block__zu71P" data-date="2024-08-01"></rect><rect x="0" y="80" width="12" height="12" fill="#161B22" rx="2" ry="2" class="styles_block__zu71P" data-date="2024-08-02"></rect><rect x="0" y="96" width="12" height="12" fill="#006d32" rx="2" ry="2" class="styles_block__zu71P" data-date="2024-08-03"></rect></g><g transform="translate(480, 0)"><rect x="0" y="0" width="12" height="12" fill="#161B22" rx="2" ry="2" class="styles_block__zu71P" data-date="2024-08-04"></rect><rect x="0" y="16" width="12" height="12" fill="#161B22" rx="2" ry="2" class="styles_block__zu71P" data-date="2024-08-05"></rect><rect x="0" y="32" width="12" height="12" fill="#161B22" rx="2" ry="2" class="styles_block__zu71P" data-date="2024-08-06"></rect><rect x="0" y="48" width="12" height="12" fill="#161B22" rx="2" ry="2" class="styles_block__zu71P" data-date="2024-08-07"></rect><rect x="0" y="64" width="12" height="12" fill="#161B22" rx="2" ry="2" class="styles_block__zu71P" data-date="2024-08-08"></rect><rect x="0" y="80" width="12" height="12" fill="#161B22" rx="2" ry="2" class="styles_block__zu71P" data-date="2024-08-09"></rect><rect x="0" y="96" width="12" height="12" fill="#161B22" rx="2" ry="2" class="styles_block__zu71P" data-date="2024-08-10"></rect></g><g transform="translate(496, 0)"><rect x="0" y="0" width="12" height="12" fill="#161B22" rx="2" ry="2" class="styles_block__zu71P" data-date="2024-08-11"></rect><rect x="0" y="16" width="12" height="12" fill="#161B22" rx="2" ry="2" class="styles_block__zu71P" data-date="2024-08-12"></rect><rect x="0" y="32" width="12" height="12" fill="#161B22" rx="2" ry="2" class="styles_block__zu71P" data-date="2024-08-13"></rect><rect x="0" y="48" width="12" height="12" fill="#161B22" rx="2" ry="2" class="styles_block__zu71P" data-date="2024-08-14"></rect><rect x="0" y="64" width="12" height="12" fill="#161B22" rx="2" ry="2" class="styles_block__zu71P" data-date="2024-08-15"></rect><rect x="0" y="80" width="12" height="12" fill="#161B22" rx="2" ry="2" class="styles_block__zu71P" data-date="2024-08-16"></rect><rect x="0" y="96" width="12" height="12" fill="#161B22" rx="2" ry="2" class="styles_block__zu71P" data-date="2024-08-17"></rect></g><g transform="translate(512, 0)"><rect x="0" y="0" width="12" height="12" fill="#161B22" rx="2" ry="2" class="styles_block__zu71P" data-date="2024-08-18"></rect><rect x="0" y="16" width="12" height="12" fill="#161B22" rx="2" ry="2" class="styles_block__zu71P" data-date="2024-08-19"></rect><rect x="0" y="32" width="12" height="12" fill="#161B22" rx="2" ry="2" class="styles_block__zu71P" data-date="2024-08-20"></rect><rect x="0" y="48" width="12" height="12" fill="#161B22" rx="2" ry="2" class="styles_block__zu71P" data-date="2024-08-21"></rect><rect x="0" y="64" width="12" height="12" fill="#161B22" rx="2" ry="2" class="styles_block__zu71P" data-date="2024-08-22"></rect><rect x="0" y="80" width="12" height="12" fill="#161B22" rx="2" ry="2" class="styles_block__zu71P" data-date="2024-08-23"></rect><rect x="0" y="96" width="12" height="12" fill="#161B22" rx="2" ry="2" class="styles_block__zu71P" data-date="2024-08-24"></rect></g><g transform="translate(528, 0)"><rect x="0" y="0" width="12" height="12" fill="#161B22" rx="2" ry="2" class="styles_block__zu71P" data-date="2024-08-25"></rect><rect x="0" y="16" width="12" height="12" fill="#161B22" rx="2" ry="2" class="styles_block__zu71P" data-date="2024-08-26"></rect><rect x="0" y="32" width="12" height="12" fill="#161B22" rx="2" ry="2" class="styles_block__zu71P" data-date="2024-08-27"></rect><rect x="0" y="48" width="12" height="12" fill="#161B22" rx="2" ry="2" class="styles_block__zu71P" data-date="2024-08-28"></rect><rect x="0" y="64" width="12" height="12" fill="#161B22" rx="2" ry="2" class="styles_block__zu71P" data-date="2024-08-29"></rect><rect x="0" y="80" width="12" height="12" fill="#161B22" rx="2" ry="2" class="styles_block__zu71P" data-date="2024-08-30"></rect><rect x="0" y="96" width="12" height="12" fill="#161B22" rx="2" ry="2" class="styles_block__zu71P" data-date="2024-08-31"></rect></g><g transform="translate(544, 0)"><rect x="0" y="0" width="12" height="12" fill="#161B22" rx="2" ry="2" class="styles_block__zu71P" data-date="2024-09-01"></rect><rect x="0" y="16" width="12" height="12" fill="#161B22" rx="2" ry="2" class="styles_block__zu71P" data-date="2024-09-02"></rect><rect x="0" y="32" width="12" height="12" fill="#161B22" rx="2" ry="2" class="styles_block__zu71P" data-date="2024-09-03"></rect><rect x="0" y="48" width="12" height="12" fill="#161B22" rx="2" ry="2" class="styles_block__zu71P" data-date="2024-09-04"></rect><rect x="0" y="64" width="12" height="12" fill="#161B22" rx="2" ry="2" class="styles_block__zu71P" data-date="2024-09-05"></rect><rect x="0" y="80" width="12" height="12" fill="#161B22" rx="2" ry="2" class="styles_block__zu71P" data-date="2024-09-06"></rect><rect x="0" y="96" width="12" height="12" fill="#161B22" rx="2" ry="2" class="styles_block__zu71P" data-date="2024-09-07"></rect></g><g transform="translate(560, 0)"><rect x="0" y="0" width="12" height="12" fill="#161B22" rx="2" ry="2" class="styles_block__zu71P" data-date="2024-09-08"></rect><rect x="0" y="16" width="12" height="12" fill="#161B22" rx="2" ry="2" class="styles_block__zu71P" data-date="2024-09-09"></rect><rect x="0" y="32" width="12" height="12" fill="#161B22" rx="2" ry="2" class="styles_block__zu71P" data-date="2024-09-10"></rect><rect x="0" y="48" width="12" height="12" fill="#161B22" rx="2" ry="2" class="styles_block__zu71P" data-date="2024-09-11"></rect><rect x="0" y="64" width="12" height="12" fill="#161B22" rx="2" ry="2" class="styles_block__zu71P" data-date="2024-09-12"></rect><rect x="0" y="80" width="12" height="12" fill="#161B22" rx="2" ry="2" class="styles_block__zu71P" data-date="2024-09-13"></rect><rect x="0" y="96" width="12" height="12" fill="#161B22" rx="2" ry="2" class="styles_block__zu71P" data-date="2024-09-14"></rect></g><g transform="translate(576, 0)"><rect x="0" y="0" width="12" height="12" fill="#161B22" rx="2" ry="2" class="styles_block__zu71P" data-date="2024-09-15"></rect><rect x="0" y="16" width="12" height="12" fill="#161B22" rx="2" ry="2" class="styles_block__zu71P" data-date="2024-09-16"></rect><rect x="0" y="32" width="12" height="12" fill="#161B22" rx="2" ry="2" class="styles_block__zu71P" data-date="2024-09-17"></rect><rect x="0" y="48" width="12" height="12" fill="#161B22" rx="2" ry="2" class="styles_block__zu71P" data-date="2024-09-18"></rect><rect x="0" y="64" width="12" height="12" fill="#161B22" rx="2" ry="2" class="styles_block__zu71P" data-date="2024-09-19"></rect><rect x="0" y="80" width="12" height="12" fill="#161B22" rx="2" ry="2" class="styles_block__zu71P" data-date="2024-09-20"></rect><rect x="0" y="96" width="12" height="12" fill="#161B22" rx="2" ry="2" class="styles_block__zu71P" data-date="2024-09-21"></rect></g><g transform="translate(592, 0)"><rect x="0" y="0" width="12" height="12" fill="#161B22" rx="2" ry="2" class="styles_block__zu71P" data-date="2024-09-22"></rect><rect x="0" y="16" width="12" height="12" fill="#161B22" rx="2" ry="2" class="styles_block__zu71P" data-date="2024-09-23"></rect><rect x="0" y="32" width="12" height="12" fill="#161B22" rx="2" ry="2" class="styles_block__zu71P" data-date="2024-09-24"></rect><rect x="0" y="48" width="12" height="12" fill="#161B22" rx="2" ry="2" class="styles_block__zu71P" data-date="2024-09-25"></rect><rect x="0" y="64" width="12" height="12" fill="#161B22" rx="2" ry="2" class="styles_block__zu71P" data-date="2024-09-26"></rect><rect x="0" y="80" width="12" height="12" fill="#161B22" rx="2" ry="2" class="styles_block__zu71P" data-date="2024-09-27"></rect><rect x="0" y="96" width="12" height="12" fill="#161B22" rx="2" ry="2" class="styles_block__zu71P" data-date="2024-09-28"></rect></g><g transform="translate(608, 0)"><rect x="0" y="0" width="12" height="12" fill="#161B22" rx="2" ry="2" class="styles_block__zu71P" data-date="2024-09-29"></rect><rect x="0" y="16" width="12" height="12" fill="#161B22" rx="2" ry="2" class="styles_block__zu71P" data-date="2024-09-30"></rect><rect x="0" y="32" width="12" height="12" fill="#161B22" rx="2" ry="2" class="styles_block__zu71P" data-date="2024-10-01"></rect><rect x="0" y="48" width="12" height="12" fill="#161B22" rx="2" ry="2" class="styles_block__zu71P" data-date="2024-10-02"></rect><rect x="0" y="64" width="12" height="12" fill="#161B22" rx="2" ry="2" class="styles_block__zu71P" data-date="2024-10-03"></rect><rect x="0" y="80" width="12" height="12" fill="#161B22" rx="2" ry="2" class="styles_block__zu71P" data-date="2024-10-04"></rect><rect x="0" y="96" width="12" height="12" fill="#161B22" rx="2" ry="2" class="styles_block__zu71P" data-date="2024-10-05"></rect></g><g transform="translate(624, 0)"><rect x="0" y="0" width="12" height="12" fill="#161B22" rx="2" ry="2" class="styles_block__zu71P" data-date="2024-10-06"></rect><rect x="0" y="16" width="12" height="12" fill="#161B22" rx="2" ry="2" class="styles_block__zu71P" data-date="2024-10-07"></rect><rect x="0" y="32" width="12" height="12" fill="#006d32" rx="2" ry="2" class="styles_block__zu71P" data-date="2024-10-08"></rect><rect x="0" y="48" width="12" height="12" fill="#006d32" rx="2" ry="2" class="styles_block__zu71P" data-date="2024-10-09"></rect><rect x="0" y="64" width="12" height="12" fill="#161B22" rx="2" ry="2" class="styles_block__zu71P" data-date="2024-10-10"></rect><rect x="0" y="80" width="12" height="12" fill="#161B22" rx="2" ry="2" class="styles_block__zu71P" data-date="2024-10-11"></rect><rect x="0" y="96" width="12" height="12" fill="#161B22" rx="2" ry="2" class="styles_block__zu71P" data-date="2024-10-12"></rect></g><g transform="translate(640, 0)"><rect x="0" y="0" width="12" height="12" fill="#161B22" rx="2" ry="2" class="styles_block__zu71P" data-date="2024-10-13"></rect><rect x="0" y="16" width="12" height="12" fill="#161B22" rx="2" ry="2" class="styles_block__zu71P" data-date="2024-10-14"></rect><rect x="0" y="32" width="12" height="12" fill="#161B22" rx="2" ry="2" class="styles_block__zu71P" data-date="2024-10-15"></rect><rect x="0" y="48" width="12" height="12" fill="#006d32" rx="2" ry="2" class="styles_block__zu71P" data-date="2024-10-16"></rect><rect x="0" y="64" width="12" height="12" fill="#161B22" rx="2" ry="2" class="styles_block__zu71P" data-date="2024-10-17"></rect><rect x="0" y="80" width="12" height="12" fill="#161B22" rx="2" ry="2" class="styles_block__zu71P" data-date="2024-10-18"></rect><rect x="0" y="96" width="12" height="12" fill="#161B22" rx="2" ry="2" class="styles_block__zu71P" data-date="2024-10-19"></rect></g><g transform="translate(656, 0)"><rect x="0" y="0" width="12" height="12" fill="#161B22" rx="2" ry="2" class="styles_block__zu71P" data-date="2024-10-20"></rect><rect x="0" y="16" width="12" height="12" fill="#161B22" rx="2" ry="2" class="styles_block__zu71P" data-date="2024-10-21"></rect><rect x="0" y="32" width="12" height="12" fill="#161B22" rx="2" ry="2" class="styles_block__zu71P" data-date="2024-10-22"></rect><rect x="0" y="48" width="12" height="12" fill="#161B22" rx="2" ry="2" class="styles_block__zu71P" data-date="2024-10-23"></rect><rect x="0" y="64" width="12" height="12" fill="#161B22" rx="2" ry="2" class="styles_block__zu71P" data-date="2024-10-24"></rect><rect x="0" y="80" width="12" height="12" fill="#161B22" rx="2" ry="2" class="styles_block__zu71P" data-date="2024-10-25"></rect><rect x="0" y="96" width="12" height="12" fill="#161B22" rx="2" ry="2" class="styles_block__zu71P" data-date="2024-10-26"></rect></g><g transform="translate(672, 0)"><rect x="0" y="0" width="12" height="12" fill="#161B22" rx="2" ry="2" class="styles_block__zu71P" data-date="2024-10-27"></rect><rect x="0" y="16" width="12" height="12" fill="#161B22" rx="2" ry="2" class="styles_block__zu71P" data-date="2024-10-28"></rect><rect x="0" y="32" width="12" height="12" fill="#161B22" rx="2" ry="2" class="styles_block__zu71P" data-date="2024-10-29"></rect><rect x="0" y="48" width="12" height="12" fill="#161B22" rx="2" ry="2" class="styles_block__zu71P" data-date="2024-10-30"></rect><rect x="0" y="64" width="12" height="12" fill="#161B22" rx="2" ry="2" class="styles_block__zu71P" data-date="2024-10-31"></rect><rect x="0" y="80" width="12" height="12" fill="#161B22" rx="2" ry="2" class="styles_block__zu71P" data-date="2024-11-01"></rect><rect x="0" y="96" width="12" height="12" fill="#161B22" rx="2" ry="2" class="styles_block__zu71P" data-date="2024-11-02"></rect></g><g transform="translate(688, 0)"><rect x="0" y="0" width="12" height="12" fill="#161B22" rx="2" ry="2" class="styles_block__zu71P" data-date="2024-11-03"></rect><rect x="0" y="16" width="12" height="12" fill="#161B22" rx="2" ry="2" class="styles_block__zu71P" data-date="2024-11-04"></rect><rect x="0" y="32" width="12" height="12" fill="#161B22" rx="2" ry="2" class="styles_block__zu71P" data-date="2024-11-05"></rect><rect x="0" y="48" width="12" height="12" fill="#161B22" rx="2" ry="2" class="styles_block__zu71P" data-date="2024-11-06"></rect><rect x="0" y="64" width="12" height="12" fill="#161B22" rx="2" ry="2" class="styles_block__zu71P" data-date="2024-11-07"></rect><rect x="0" y="80" width="12" height="12" fill="#161B22" rx="2" ry="2" class="styles_block__zu71P" data-date="2024-11-08"></rect><rect x="0" y="96" width="12" height="12" fill="#161B22" rx="2" ry="2" class="styles_block__zu71P" data-date="2024-11-09"></rect></g><g transform="translate(704, 0)"><rect x="0" y="0" width="12" height="12" fill="#161B22" rx="2" ry="2" class="styles_block__zu71P" data-date="2024-11-10"></rect><rect x="0" y="16" width="12" height="12" fill="#161B22" rx="2" ry="2" class="styles_block__zu71P" data-date="2024-11-11"></rect><rect x="0" y="32" width="12" height="12" fill="#161B22" rx="2" ry="2" class="styles_block__zu71P" data-date="2024-11-12"></rect><rect x="0" y="48" width="12" height="12" fill="#39d353" rx="2" ry="2" class="styles_block__zu71P" data-date="2024-11-13"></rect><rect x="0" y="64" width="12" height="12" fill="#161B22" rx="2" ry="2" class="styles_block__zu71P" data-date="2024-11-14"></rect><rect x="0" y="80" width="12" height="12" fill="#161B22" rx="2" ry="2" class="styles_block__zu71P" data-date="2024-11-15"></rect><rect x="0" y="96" width="12" height="12" fill="#161B22" rx="2" ry="2" class="styles_block__zu71P" data-date="2024-11-16"></rect></g><g transform="translate(720, 0)"><rect x="0" y="0" width="12" height="12" fill="#161B22" rx="2" ry="2" class="styles_block__zu71P" data-date="2024-11-17"></rect><rect x="0" y="16" width="12" height="12" fill="#161B22" rx="2" ry="2" class="styles_block__zu71P" data-date="2024-11-18"></rect><rect x="0" y="32" width="12" height="12" fill="#161B22" rx="2" ry="2" class="styles_block__zu71P" data-date="2024-11-19"></rect><rect x="0" y="48" width="12" height="12" fill="#161B22" rx="2" ry="2" class="styles_block__zu71P" data-date="2024-11-20"></rect><rect x="0" y="64" width="12" height="12" fill="#39d353" rx="2" ry="2" class="styles_block__zu71P" data-date="2024-11-21"></rect><rect x="0" y="80" width="12" height="12" fill="#161B22" rx="2" ry="2" class="styles_block__zu71P" data-date="2024-11-22"></rect><rect x="0" y="96" width="12" height="12" fill="#161B22" rx="2" ry="2" class="styles_block__zu71P" data-date="2024-11-23"></rect></g><g transform="translate(736, 0)"><rect x="0" y="0" width="12" height="12" fill="#161B22" rx="2" ry="2" class="styles_block__zu71P" data-date="2024-11-24"></rect><rect x="0" y="16" width="12" height="12" fill="#161B22" rx="2" ry="2" class="styles_block__zu71P" data-date="2024-11-25"></rect><rect x="0" y="32" width="12" height="12" fill="#161B22" rx="2" ry="2" class="styles_block__zu71P" data-date="2024-11-26"></rect><rect x="0" y="48" width="12" height="12" fill="#161B22" rx="2" ry="2" class="styles_block__zu71P" data-date="2024-11-27"></rect><rect x="0" y="64" width="12" height="12" fill="#161B22" rx="2" ry="2" class="styles_block__zu71P" data-date="2024-11-28"></rect><rect x="0" y="80" width="12" height="12" fill="#161B22" rx="2" ry="2" class="styles_block__zu71P" data-date="2024-11-29"></rect><rect x="0" y="96" width="12" height="12" fill="#161B22" rx="2" ry="2" class="styles_block__zu71P" data-date="2024-11-30"></rect></g><g transform="translate(752, 0)"><rect x="0" y="0" width="12" height="12" fill="#161B22" rx="2" ry="2" class="styles_block__zu71P" data-date="2024-12-01"></rect><rect x="0" y="16" width="12" height="12" fill="#161B22" rx="2" ry="2" class="styles_block__zu71P" data-date="2024-12-02"></rect><rect x="0" y="32" width="12" height="12" fill="#161B22" rx="2" ry="2" class="styles_block__zu71P" data-date="2024-12-03"></rect><rect x="0" y="48" width="12" height="12" fill="#161B22" rx="2" ry="2" class="styles_block__zu71P" data-date="2024-12-04"></rect><rect x="0" y="64" width="12" height="12" fill="#161B22" rx="2" ry="2" class="styles_block__zu71P" data-date="2024-12-05"></rect><rect x="0" y="80" width="12" height="12" fill="#161B22" rx="2" ry="2" class="styles_block__zu71P" data-date="2024-12-06"></rect><rect x="0" y="96" width="12" height="12" fill="#161B22" rx="2" ry="2" class="styles_block__zu71P" data-date="2024-12-07"></rect></g><g transform="translate(768, 0)"><rect x="0" y="0" width="12" height="12" fill="#161B22" rx="2" ry="2" class="styles_block__zu71P" data-date="2024-12-08"></rect><rect x="0" y="16" width="12" height="12" fill="#161B22" rx="2" ry="2" class="styles_block__zu71P" data-date="2024-12-09"></rect><rect x="0" y="32" width="12" height="12" fill="#161B22" rx="2" ry="2" class="styles_block__zu71P" data-date="2024-12-10"></rect><rect x="0" y="48" width="12" height="12" fill="#161B22" rx="2" ry="2" class="styles_block__zu71P" data-date="2024-12-11"></rect><rect x="0" y="64" width="12" height="12" fill="#161B22" rx="2" ry="2" class="styles_block__zu71P" data-date="2024-12-12"></rect><rect x="0" y="80" width="12" height="12" fill="#161B22" rx="2" ry="2" class="styles_block__zu71P" data-date="2024-12-13"></rect><rect x="0" y="96" width="12" height="12" fill="#161B22" rx="2" ry="2" class="styles_block__zu71P" data-date="2024-12-14"></rect></g><g transform="translate(784, 0)"><rect x="0" y="0" width="12" height="12" fill="#161B22" rx="2" ry="2" class="styles_block__zu71P" data-date="2024-12-15"></rect><rect x="0" y="16" width="12" height="12" fill="#006d32" rx="2" ry="2" class="styles_block__zu71P" data-date="2024-12-16"></rect><rect x="0" y="32" width="12" height="12" fill="#161B22" rx="2" ry="2" class="styles_block__zu71P" data-date="2024-12-17"></rect><rect x="0" y="48" width="12" height="12" fill="#161B22" rx="2" ry="2" class="styles_block__zu71P" data-date="2024-12-18"></rect><rect x="0" y="64" width="12" height="12" fill="#161B22" rx="2" ry="2" class="styles_block__zu71P" data-date="2024-12-19"></rect><rect x="0" y="80" width="12" height="12" fill="#161B22" rx="2" ry="2" class="styles_block__zu71P" data-date="2024-12-20"></rect><rect x="0" y="96" width="12" height="12" fill="#161B22" rx="2" ry="2" class="styles_block__zu71P" data-date="2024-12-21"></rect></g><g transform="translate(800, 0)"><rect x="0" y="0" width="12" height="12" fill="#161B22" rx="2" ry="2" class="styles_block__zu71P" data-date="2024-12-22"></rect><rect x="0" y="16" width="12" height="12" fill="#161B22" rx="2" ry="2" class="styles_block__zu71P" data-date="2024-12-23"></rect><rect x="0" y="32" width="12" height="12" fill="#161B22" rx="2" ry="2" class="styles_block__zu71P" data-date="2024-12-24"></rect><rect x="0" y="48" width="12" height="12" fill="#161B22" rx="2" ry="2" class="styles_block__zu71P" data-date="2024-12-25"></rect><rect x="0" y="64" width="12" height="12" fill="#161B22" rx="2" ry="2" class="styles_block__zu71P" data-date="2024-12-26"></rect><rect x="0" y="80" width="12" height="12" fill="#161B22" rx="2" ry="2" class="styles_block__zu71P" data-date="2024-12-27"></rect><rect x="0" y="96" width="12" height="12" fill="#161B22" rx="2" ry="2" class="styles_block__zu71P" data-date="2024-12-28"></rect></g><g transform="translate(816, 0)"><rect x="0" y="0" width="12" height="12" fill="#161B22" rx="2" ry="2" class="styles_block__zu71P" data-date="2024-12-29"></rect><rect x="0" y="16" width="12" height="12" fill="#161B22" rx="2" ry="2" class="styles_block__zu71P" data-date="2024-12-30"></rect><rect x="0" y="32" width="12" height="12" fill="#161B22" rx="2" ry="2" class="styles_block__zu71P" data-date="2024-12-31"></rect><rect x="0" y="48" width="12" height="12" fill="#161B22" rx="2" ry="2" class="styles_block__zu71P" data-date="2025-01-01"></rect><rect x="0" y="64" width="12" height="12" fill="#161B22" rx="2" ry="2" class="styles_block__zu71P" data-date="2025-01-02"></rect><rect x="0" y="80" width="12" height="12" fill="#161B22" rx="2" ry="2" class="styles_block__zu71P" data-date="2025-01-03"></rect><rect x="0" y="96" width="12" height="12" fill="#161B22" rx="2" ry="2" class="styles_block__zu71P" data-date="2025-01-04"></rect></g><g transform="translate(832, 0)"><rect x="0" y="0" width="12" height="12" fill="#161B22" rx="2" ry="2" class="styles_block__zu71P" data-date="2025-01-05"></rect></g></svg>