<svg width="1023" height="1017" viewBox="0 0 1023 1017" fill="none" xmlns="http://www.w3.org/2000/svg">
<path d="M986.712 107.725L776.091 6.32371C764.197 0.588742 750.813 -1.3038 737.795 0.908431C724.777 3.12066 712.769 9.32808 703.437 18.6702L13.9709 647.244C5.60563 654.835 0.598229 665.437 0.0502052 676.72C-0.497818 688.002 3.45842 699.04 11.0486 707.406C11.9618 708.392 12.875 709.342 13.8613 710.219L70.151 761.358C77.5064 768.052 86.9742 771.959 96.9101 772.399C106.846 772.839 116.622 769.786 124.541 763.769L955.006 134.026C961.278 129.266 968.755 126.351 976.594 125.61C984.434 124.869 992.324 126.331 999.378 129.831C1006.43 133.331 1012.37 138.731 1016.52 145.422C1020.67 152.113 1022.87 159.83 1022.87 167.704V165.257C1022.87 153.236 1019.48 141.459 1013.08 131.281C1006.68 121.103 997.544 112.938 986.712 107.725Z" fill="#0065A9"/>
<path d="M986.712 909.151L776.091 1010.59C764.193 1016.31 750.813 1018.19 737.799 1015.98C724.785 1013.77 712.778 1007.57 703.437 998.243L13.9709 369.633C5.60563 362.042 0.598229 351.439 0.0502052 340.157C-0.497818 328.874 3.45842 317.836 11.0486 309.471C11.9618 308.485 12.875 307.535 13.8613 306.658L70.151 255.519C77.5138 248.796 87.0033 244.873 96.9637 244.432C106.924 243.991 116.723 247.062 124.651 253.108L955.006 882.851C961.278 887.611 968.755 890.526 976.594 891.267C984.434 892.008 992.324 890.546 999.378 887.046C1006.43 883.545 1012.37 878.146 1016.52 871.455C1020.67 864.764 1022.87 857.047 1022.87 849.172V851.802C1022.84 863.792 1019.42 875.528 1013.03 885.67C1006.63 895.811 997.513 903.948 986.712 909.151Z" fill="#007ACC"/>
<path d="M776.107 1010.59C764.209 1016.31 750.829 1018.19 737.815 1015.98C724.8 1013.77 712.794 1007.57 703.453 998.242C708.698 1003.42 715.355 1006.93 722.589 1008.34C729.823 1009.75 737.313 1009 744.119 1006.17C750.925 1003.34 756.745 998.568 760.85 992.447C764.955 986.326 767.162 979.13 767.194 971.759V45.1168C767.2 37.7122 765.009 30.4723 760.897 24.3143C756.785 18.1564 750.938 13.3574 744.096 10.5253C737.254 7.69317 729.726 6.9554 722.465 8.40542C715.203 9.85544 708.536 13.428 703.307 18.6706C712.64 9.33184 724.645 3.12403 737.661 0.905651C750.677 -1.31273 764.061 0.567939 775.961 6.28756L986.545 107.543C997.411 112.73 1006.59 120.884 1013.02 131.064C1019.45 141.243 1022.87 153.034 1022.89 165.075V851.801C1022.89 863.833 1019.5 875.62 1013.09 885.806C1006.69 895.991 997.536 904.159 986.691 909.37L776.107 1010.59Z" fill="#1F9CF0"/>
</svg>
